# xmcd CD database file
#
# Track frame offsets:
#	150
#	67682
#	75829
#	86431
#	95661
#	107193
#	126664
#	142115
#	153312
#	165748
#	177439
#	188484
#	202160
#	214460
#	224337
#	235478
#	246660
#	259756
#	270591
#	287360
#	299476
#
# Disc length: 4172 seconds
#
# Revision: 0
# Processed by: cddbd v1.5PL3 Copyright (c) Steve Scherf et al.
# Submitted via: CDex 1.50beta8
#
DISCID=47104a15
DTITLE=アリスソフト - SeeIn青
DYEAR=2003
DGENRE=Game
TTITLE0=ＤＡＴＡ
TTITLE1=心のツバサ
TTITLE2=夢・過去の記憶
TTITLE3=移動パート１
TTITLE4=海―潜水艇
TTITLE5=寂しい心
TTITLE6=琴里・・記憶
TTITLE7=涙
TTITLE8=ドッグファイト
TTITLE9=壊れる心
TTITLE10=想い重ねて
TTITLE11=日常の光景
TTITLE12=緊迫感
TTITLE13=ほのぼのとした日々
TTITLE14=クェスチョンな日常
TTITLE15=積極的に行こう
TTITLE16=猜疑心
TTITLE17=バイオレンス
TTITLE18=穏やかな日常
TTITLE19=移動パート２
TTITLE20=だから今は笑顔のままで…
EXTD=YEAR: 2003/12/24
EXTT0=
EXTT1=
EXTT2=
EXTT3=
EXTT4=
EXTT5=
EXTT6=
EXTT7=
EXTT8=
EXTT9=
EXTT10=
EXTT11=
EXTT12=
EXTT13=
EXTT14=
EXTT15=
EXTT16=
EXTT17=
EXTT18=
EXTT19=
EXTT20=
PLAYORDER=
